<svg width="60" height="36" xmlns="http://www.w3.org/2000/svg" class="apexcharts-svg" style="background:0 0"><path d="M-1.66 34.001v-1.76c0-1 1-2 2-2 .66 0 1.32 1 1.32 2v1.76c0 1-1 2-2 2-.66 0-1.32-1-1.32-2m4.883 0v-2.48c0-1 1-2 2-2 .661 0 1.321 1 1.321 2v2.48c0 1-1 2-2 2-.66 0-1.32-1-1.32-2m4.883 0v-18.32c0-1 1-2 2-2 .66 0 1.321 1 1.321 2v18.32c0 1-1 2-2 2-.66 0-1.32-1-1.32-2m4.883 0v-1.76c0-1 1-2 2-2 .66 0 1.321 1 1.321 2v1.76c0 1-1 2-2 2-.66 0-1.32-1-1.32-2m4.883 0v-7.52c0-1 1-2 2-2 .66 0 1.321 1 1.321 2v7.52c0 1-1 2-2 2-.66 0-1.32-1-1.32-2m4.884 0v-22.64c0-1 1-2 2-2 .66 0 1.32 1 1.32 2v22.64c0 1-1 2-2 2-.66 0-1.32-1-1.32-2m4.883 0v-1.76c0-1 1-2 2-2 .66 0 1.321 1 1.321 2v1.76c0 1-1 2-2 2-.66 0-1.32-1-1.32-2m4.883 0v-19.76c0-1 1-2 2-2 .66 0 1.321 1 1.321 2v19.76c0 1-1 2-2 2-.66 0-1.32-1-1.32-2m4.883 0V4.881c0-1 1-2 2-2 .66 0 1.321 1 1.321 2v29.12c0 1-1 2-2 2-.66 0-1.32-1-1.32-2m4.883 0v-18.32c0-1 1-2 2-2 .66 0 1.321 1 1.321 2v18.32c0 1-1 2-2 2-.66 0-1.321-1-1.321-2" fill="rgba(255,171,0,0.85)" class="apexcharts-bar-area" clip-path="url(#b)"/></svg>
