<svg width="60" height="36" xmlns="http://www.w3.org/2000/svg" class="apexcharts-svg" xmlns:data="ApexChartsNS" style="background:0 0">
    <path d="M-1.66 34.001v-5c0-1 1-2 2-2 .66 0 1.32 1 1.32 2v5c0 1-1 2-2 2-.66 0-1.32-1-1.32-2m4.883 0v-14.45c0-1 1-2 2-2 .661 0 1.321 1 1.321 2v14.45c0 1-1 2-2 2-.66 0-1.32-1-1.32-2m4.883 0V9.651c0-1 1-2 2-2 .66 0 1.321 1 1.321 2v24.35c0 1-1 2-2 2-.66 0-1.32-1-1.32-2m4.883 0v-10.85c0-1 1-2 2-2 .66 0 1.321 1 1.321 2v10.85c0 1-1 2-2 2-.66 0-1.32-1-1.32-2m4.883 0v-8.6c0-1 1-2 2-2 .66 0 1.321 1 1.321 2v8.6c0 1-1 2-2 2-.66 0-1.32-1-1.32-2m4.884 0v-11.75c0-1 1-2 2-2 .66 0 1.32 1 1.32 2v11.75c0 1-1 2-2 2-.66 0-1.32-1-1.32-2m4.883 0v-18.5c0-1 1-2 2-2 .66 0 1.321 1 1.321 2v18.5c0 1-1 2-2 2-.66 0-1.32-1-1.32-2m4.883 0v-16.7c0-1 1-2 2-2 .66 0 1.321 1 1.321 2v16.7c0 1-1 2-2 2-.66 0-1.32-1-1.32-2m4.883 0v-.95c0-1 1-2 2-2 .66 0 1.321 1 1.321 2v.95c0 1-1 2-2 2-.66 0-1.32-1-1.32-2m4.883 0v-7.7c0-1 1-2 2-2 .66 0 1.321 1 1.321 2v7.7c0 1-1 2-2 2-.66 0-1.321-1-1.321-2" fill="rgba(0,184,217,0.85)" class="apexcharts-bar-area" clip-path="url(#b)"/>
</svg>
