<svg width="60" height="36" xmlns="http://www.w3.org/2000/svg" class="apexcharts-svg" style="background:0 0"><path d="M-1.66 35.751c0-1 1-2 2-2 .66 0 1.32 1 1.32 2 0 .125-1 .25-2 .25-.66 0-1.32-.125-1.32-.25Zm4.883-1.75v-4.1c0-1 1-2 2-2 .661 0 1.321 1 1.321 2v4.1c0 1-1 2-2 2-.66 0-1.32-1-1.32-2Zm4.884 0v-1.4c0-1 1-2 2-2 .66 0 1.321 1 1.321 2v1.4c0 1-1 2-2 2-.66 0-1.32-1-1.32-2Zm4.884 0v-18.95c0-1 1-2 2-2 .66 0 1.321 1 1.321 2v18.95c0 1-1 2-2 2-.66 0-1.32-1-1.32-2Zm4.884 0v-26.6c0-1 1-2 2-2 .66 0 1.321 1 1.321 2v26.6c0 1-1 2-2 2-.66 0-1.32-1-1.32-2Zm4.885 0v-.95c0-1 1-2 2-2 .66 0 1.32 1 1.32 2v.95c0 1-1 2-2 2-.66 0-1.32-1-1.32-2Zm4.883 0v-13.55c0-1 1-2 2-2 .66 0 1.321 1 1.321 2v13.55c0 1-1 2-2 2-.66 0-1.32-1-1.32-2Zm4.884 0v-12.65c0-1 1-2 2-2 .66 0 1.321 1 1.321 2v12.65c0 1-1 2-2 2-.66 0-1.32-1-1.32-2Zm4.884 0v-8.15c0-1 1-2 2-2 .66 0 1.321 1 1.321 2v8.15c0 1-1 2-2 2-.66 0-1.32-1-1.32-2Zm4.884 0v-5c0-1 1-2 2-2 .66 0 1.321 1 1.321 2v5c0 1-1 2-2 2-.66 0-1.321-1-1.321-2Z" fill="rgba(0,184,217,0.85)" class="apexcharts-bar-area" clip-path="url(#b)"/></svg>
