<?xml version="1.0" standalone="no"?>
<!DOCTYPE svg PUBLIC "-//W3C//DTD SVG 20010904//EN"
 "http://www.w3.org/TR/2001/REC-SVG-20010904/DTD/svg10.dtd">
<svg version="1.0" xmlns="http://www.w3.org/2000/svg"
 width="512.000000pt" height="512.000000pt" viewBox="0 0 512.000000 512.000000"
 preserveAspectRatio="xMidYMid meet">

<g transform="translate(0.000000,512.000000) scale(0.100000,-0.100000)"
fill="#000000" stroke="none">
<path d="M1370 4837 c-163 -55 -258 -153 -338 -349 l-12 -28 -119 0 c-128 0
-161 -8 -186 -46 -24 -37 -667 -2703 -660 -2736 9 -41 57 -84 102 -91 21 -4
149 -7 286 -7 l247 0 0 -226 c0 -247 5 -275 58 -311 26 -17 84 -18 1108 -21
l1081 -2 11 -69 c62 -372 351 -706 717 -829 213 -72 476 -72 690 0 314 104
573 364 679 682 58 173 56 115 56 1925 l0 1663 -34 34 -34 34 -290 0 -289 0
-22 59 c-31 85 -95 176 -160 227 -104 82 -197 114 -332 114 -106 0 -191 -24
-275 -78 -103 -67 -160 -142 -222 -294 -11 -28 -13 -28 -100 -28 l-89 0 -22
59 c-31 85 -95 176 -160 227 -104 82 -197 114 -332 114 -106 0 -191 -24 -275
-78 -103 -67 -160 -142 -222 -294 -11 -28 -13 -28 -100 -28 l-89 0 -22 59
c-58 161 -191 283 -356 327 -80 22 -218 17 -295 -9z m259 -232 c53 -18 105
-58 131 -100 11 -18 20 -35 20 -39 0 -3 -110 -6 -245 -6 -276 0 -273 -1 -209
69 74 83 198 114 303 76z m1200 0 c53 -18 105 -58 131 -100 11 -18 20 -35 20
-39 0 -3 -110 -6 -245 -6 -276 0 -273 -1 -209 69 74 83 198 114 303 76z m1200
0 c53 -18 105 -58 131 -100 11 -18 20 -35 20 -39 0 -3 -110 -6 -245 -6 -276 0
-273 -1 -209 69 74 83 198 114 303 76z m-2988 -422 c66 -204 264 -353 471
-353 66 0 72 2 104 34 29 29 34 41 34 81 0 40 -5 52 -33 80 -27 27 -44 34 -93
40 -83 10 -147 40 -194 91 -22 24 -40 48 -40 54 0 7 156 10 469 10 l469 0 13
-37 c66 -204 264 -353 471 -353 66 0 72 2 104 34 29 29 34 41 34 81 0 40 -5
52 -33 80 -27 27 -44 34 -93 40 -83 10 -147 40 -194 91 -22 24 -40 48 -40 54
0 7 156 10 469 10 l469 0 13 -37 c66 -204 264 -353 471 -353 66 0 72 2 104 34
29 29 34 41 34 81 0 40 -5 52 -33 80 -27 27 -44 34 -93 40 -83 10 -147 40
-194 91 -22 24 -40 48 -40 54 0 7 123 10 365 10 l365 0 -7 -27 c-4 -16 -34
-140 -68 -278 l-61 -250 -1749 -3 c-962 -1 -1752 1 -1755 5 -4 5 23 131 59
280 l66 273 62 0 61 0 13 -37z m3809 -1159 l0 -1195 -80 80 -80 80 0 401 0
402 -34 34 c-28 28 -42 34 -75 34 -56 0 -95 -22 -115 -64 -14 -29 -16 -78 -16
-349 l0 -316 -60 24 c-34 13 -95 31 -136 41 -69 15 -75 18 -70 38 3 11 112
463 243 1003 l238 983 93 0 92 0 0 -1196z m-630 384 c0 -7 -65 -276 -143 -597
l-142 -585 -97 -17 c-54 -9 -132 -29 -175 -43 -158 -53 -357 -183 -452 -296
l-42 -50 -1420 0 c-1155 0 -1419 2 -1419 13 0 7 86 365 190 796 105 431 190
785 190 787 0 2 790 4 1755 4 1397 0 1755 -3 1755 -12z m-312 -1605 c20 -36
53 -53 102 -53 84 0 120 48 120 159 l0 69 60 -14 c329 -76 589 -346 646 -666
l6 -38 -79 0 c-87 0 -113 -11 -138 -60 -20 -39 -19 -79 5 -117 26 -43 50 -54
136 -60 l75 -6 -6 -31 c-65 -324 -320 -586 -642 -660 l-63 -14 0 69 c0 111
-36 159 -120 159 -84 0 -120 -48 -120 -159 l0 -69 -66 15 c-288 66 -522 281
-612 563 -11 36 -23 79 -27 96 l-6 31 75 6 c86 6 110 17 136 60 24 38 25 78 5
117 -25 49 -51 60 -138 60 l-79 0 6 38 c32 182 146 373 291 491 108 88 204
136 340 171 l70 18 5 -77 c3 -42 11 -86 18 -98z m-893 -240 c-28 -69 -49 -140
-64 -213 l-17 -85 -1000 0 -999 0 -3 158 -3 157 1047 0 c992 0 1046 -1 1039
-17z"/>
<path d="M949 3205 c-36 -20 -63 -78 -55 -121 9 -45 56 -90 103 -97 58 -10
313 -8 358 3 59 13 95 58 95 116 0 39 -5 51 -34 80 l-34 34 -203 0 c-157 -1
-210 -4 -230 -15z"/>
<path d="M1749 3205 c-36 -20 -63 -78 -55 -121 9 -45 56 -90 103 -97 58 -10
313 -8 358 3 59 13 95 58 95 116 0 39 -5 51 -34 80 l-34 34 -203 0 c-157 -1
-210 -4 -230 -15z"/>
<path d="M2549 3205 c-36 -20 -63 -78 -55 -121 9 -45 56 -90 103 -97 58 -10
313 -8 358 3 59 13 95 58 95 116 0 39 -5 51 -34 80 l-34 34 -203 0 c-157 -1
-210 -4 -230 -15z"/>
<path d="M3349 3205 c-36 -20 -63 -78 -55 -121 9 -45 56 -90 103 -97 58 -10
313 -8 358 3 59 13 95 58 95 116 0 39 -5 51 -34 80 l-34 34 -203 0 c-157 -1
-210 -4 -230 -15z"/>
<path d="M789 2725 c-36 -20 -63 -78 -55 -121 9 -45 56 -90 103 -97 58 -10
313 -8 358 3 59 13 95 58 95 116 0 39 -5 51 -34 80 l-34 34 -203 0 c-157 -1
-210 -4 -230 -15z"/>
<path d="M1589 2725 c-36 -20 -63 -78 -55 -121 9 -45 56 -90 103 -97 58 -10
313 -8 358 3 59 13 95 58 95 116 0 39 -5 51 -34 80 l-34 34 -203 0 c-157 -1
-210 -4 -230 -15z"/>
<path d="M2389 2725 c-36 -20 -63 -78 -55 -121 9 -45 56 -90 103 -97 58 -10
313 -8 358 3 59 13 95 58 95 116 0 39 -5 51 -34 80 l-34 34 -203 0 c-157 -1
-210 -4 -230 -15z"/>
<path d="M3189 2725 c-36 -20 -63 -78 -55 -121 9 -45 56 -90 103 -97 58 -10
313 -8 358 3 59 13 95 58 95 116 0 39 -5 51 -34 80 l-34 34 -203 0 c-157 -1
-210 -4 -230 -15z"/>
<path d="M709 2245 c-36 -20 -63 -78 -55 -121 9 -45 56 -90 103 -97 58 -10
313 -8 358 3 59 13 95 58 95 116 0 39 -5 51 -34 80 l-34 34 -203 0 c-157 -1
-210 -4 -230 -15z"/>
<path d="M1509 2245 c-36 -20 -63 -78 -55 -121 9 -45 56 -90 103 -97 58 -10
313 -8 358 3 59 13 95 58 95 116 0 39 -5 51 -34 80 l-34 34 -203 0 c-157 -1
-210 -4 -230 -15z"/>
<path d="M2309 2245 c-36 -20 -63 -78 -55 -121 9 -45 56 -90 103 -97 58 -10
313 -8 358 3 59 13 95 58 95 116 0 39 -5 51 -34 80 l-34 34 -203 0 c-157 -1
-210 -4 -230 -15z"/>
<path d="M4131 1436 l-146 -144 -125 63 c-168 86 -233 87 -275 5 -20 -39 -19
-79 5 -117 16 -26 55 -50 200 -123 150 -75 188 -90 227 -90 l47 0 179 178
c182 181 207 211 207 257 0 67 -53 115 -126 115 l-47 0 -146 -144z"/>
</g>
</svg>
