<?xml version="1.0" standalone="no"?>
<!DOCTYPE svg PUBLIC "-//W3C//DTD SVG 20010904//EN"
 "http://www.w3.org/TR/2001/REC-SVG-20010904/DTD/svg10.dtd">
<svg version="1.0" xmlns="http://www.w3.org/2000/svg"
 width="512.000000pt" height="512.000000pt" viewBox="0 0 512.000000 512.000000"
 preserveAspectRatio="xMidYMid meet">

<g transform="translate(0.000000,512.000000) scale(0.100000,-0.100000)"
fill="#000000" stroke="none">
<path d="M485 4835 c-175 -39 -331 -160 -410 -320 -69 -140 -64 -2 -65 -2078
l-1 -1878 30 -64 c38 -82 104 -148 189 -188 l67 -32 2265 0 2265 0 67 32 c85
40 151 106 189 188 l30 64 -1 1878 c0 1569 -3 1887 -15 1938 -48 208 -195 370
-398 442 -57 20 -99 26 -198 30 -181 8 -169 27 -169 -277 l0 -240 -1770 0
-1770 0 0 240 c0 297 8 280 -142 279 -57 0 -130 -7 -163 -14z m185 -1947 l0
-1843 -172 0 c-190 0 -233 -9 -322 -65 l-46 -30 0 1678 c0 1829 -3 1727 56
1844 33 65 132 164 200 200 68 37 145 57 222 57 l62 1 0 -1842z m3955 1827
c32 -9 81 -28 109 -43 65 -34 164 -133 198 -198 61 -114 58 -10 58 -1846 l0
-1678 -46 30 c-87 55 -132 64 -321 65 l-173 0 0 1843 0 1842 58 0 c32 0 84 -7
117 -15z m-295 -2133 c0 -1380 2 -1621 14 -1638 13 -18 31 -19 243 -24 226 -5
228 -5 274 -32 54 -32 93 -74 116 -127 21 -47 22 -164 1 -212 -24 -55 -78
-110 -133 -135 l-50 -24 -2229 0 c-1693 0 -2238 3 -2268 12 -52 15 -132 87
-151 137 -56 138 -11 276 111 349 47 27 48 27 275 32 212 5 230 6 243 24 12
17 14 258 14 1638 l0 1618 1770 0 1770 0 0 -1618z"/>
<path d="M380 4313 c-41 -14 -40 15 -40 -1280 0 -1230 0 -1243 20 -1263 11
-11 29 -20 40 -20 11 0 29 9 40 20 20 20 20 33 20 1263 0 979 -3 1247 -12
1259 -15 19 -47 28 -68 21z"/>
<path d="M357 1502 c-14 -15 -17 -41 -17 -140 0 -109 2 -124 20 -142 11 -11
29 -20 40 -20 11 0 29 9 40 20 18 18 20 33 20 138 0 90 -4 123 -16 140 -19 27
-64 29 -87 4z"/>
<path d="M4700 4313 c-34 -12 -40 -36 -40 -153 0 -131 11 -160 59 -160 52 0
61 23 61 156 0 81 -4 125 -12 136 -15 19 -47 28 -68 21z"/>
<path d="M4680 3750 c-20 -20 -20 -33 -20 -1265 0 -1232 0 -1245 20 -1265 11
-11 29 -20 40 -20 11 0 29 9 40 20 20 20 20 33 20 1265 0 1232 0 1245 -20
1265 -11 11 -29 20 -40 20 -11 0 -29 -9 -40 -20z"/>
<path d="M1222 3564 c-22 -15 -22 -16 -22 -325 l0 -309 -38 0 c-51 0 -75 -19
-75 -60 0 -53 19 -60 170 -60 120 0 135 2 153 20 42 42 12 100 -51 100 l-39 0
0 265 0 265 405 0 405 0 0 -650 0 -651 -451 1 c-332 1 -454 -2 -465 -11 -12
-10 -14 -85 -14 -465 l0 -453 22 -15 c19 -13 59 -16 240 -16 l218 0 0 -65 c0
-70 20 -105 60 -105 40 0 60 35 60 105 l0 65 130 0 130 0 0 -69 c0 -61 3 -72
22 -85 30 -21 54 -20 78 4 16 16 20 33 20 85 l0 65 855 0 856 0 24 25 25 24 0
1139 c0 1137 0 1139 -21 1166 l-20 26 -1328 0 c-1184 0 -1329 -2 -1349 -16z
m2036 -386 l-3 -283 -45 -5 c-35 -4 -48 -11 -59 -31 -13 -24 -13 -29 2 -53 19
-28 38 -30 232 -26 78 2 95 10 95 49 0 40 -20 60 -65 63 l-40 3 -3 283 -2 282
225 0 225 0 0 -1070 0 -1070 -820 0 -820 0 0 54 c0 30 -4 66 -10 80 -12 33
-52 43 -85 22 -23 -15 -25 -23 -25 -86 l0 -70 -130 0 -130 0 0 65 c0 70 -20
105 -60 105 -40 0 -60 -35 -60 -105 l0 -65 -180 0 -180 0 0 360 0 360 438 0
c332 0 443 3 462 13 25 13 25 13 28 180 l2 167 335 0 335 0 0 -284 0 -283 -40
-6 c-23 -3 -47 -11 -55 -17 -22 -18 -19 -77 4 -90 11 -5 81 -10 155 -10 134 0
136 0 152 25 30 46 -12 95 -82 95 l-24 0 0 328 c0 188 -4 333 -10 342 -8 13
-66 16 -387 20 l-378 5 -3 468 -2 467 505 0 505 0 -2 -282z"/>
</g>
</svg>
