<?xml version="1.0" standalone="no"?>
<!DOCTYPE svg PUBLIC "-//W3C//DTD SVG 20010904//EN"
 "http://www.w3.org/TR/2001/REC-SVG-20010904/DTD/svg10.dtd">
<svg version="1.0" xmlns="http://www.w3.org/2000/svg"
 width="512.000000pt" height="512.000000pt" viewBox="0 0 512.000000 512.000000"
 preserveAspectRatio="xMidYMid meet">

<g transform="translate(0.000000,512.000000) scale(0.100000,-0.100000)"
fill="#000000" stroke="none">
<path d="M857 5109 c-135 -32 -245 -162 -255 -303 -6 -79 13 -151 57 -217 36
-54 126 -125 166 -131 19 -3 20 -11 20 -227 l0 -225 -70 -12 c-194 -33 -368
-127 -512 -277 -128 -134 -205 -280 -242 -464 -62 -304 29 -609 249 -833 190
-194 401 -283 670 -283 153 0 262 24 394 87 260 123 439 339 515 622 l16 61
185 -144 c163 -128 185 -148 183 -171 -1 -15 -5 -55 -9 -90 -32 -301 332 -482
562 -280 232 204 84 590 -226 590 -63 0 -172 -31 -185 -53 -4 -5 -12 -9 -19
-9 -7 0 -118 82 -247 183 l-234 183 -7 66 c-13 139 -69 289 -152 412 -26 38
-45 73 -44 77 4 11 379 329 388 329 4 0 11 -17 15 -37 23 -127 124 -311 231
-423 162 -169 353 -265 584 -292 167 -20 334 10 498 87 l92 44 182 -242 c99
-133 185 -247 190 -254 6 -8 -7 -16 -44 -28 -269 -87 -502 -312 -592 -571 -45
-128 -59 -226 -53 -364 4 -78 13 -150 25 -193 l20 -68 -171 -129 -171 -128
-50 72 c-140 201 -356 341 -596 387 -104 19 -280 15 -383 -10 -361 -87 -636
-369 -707 -726 -6 -33 -14 -70 -16 -82 l-4 -23 -218 0 -218 0 -23 54 c-44 106
-154 188 -273 202 -211 25 -399 -163 -374 -374 30 -253 315 -384 527 -243 54
36 125 126 131 166 3 19 11 20 227 20 l225 0 12 -70 c31 -182 115 -346 248
-484 178 -184 386 -277 641 -288 95 -4 140 -1 215 15 334 69 600 307 710 633
l25 76 275 -132 c230 -111 274 -136 271 -151 -2 -11 -4 -57 -5 -104 -1 -73 3
-93 25 -140 48 -101 135 -169 247 -191 149 -31 303 49 371 191 22 46 26 69 26
140 0 71 -4 94 -26 141 -88 188 -327 257 -493 144 l-35 -24 -315 152 -315 151
-6 76 c-3 41 -13 109 -22 150 -8 41 -16 85 -17 97 -1 17 35 49 166 147 l167
126 38 -58 c82 -124 232 -256 368 -325 144 -72 346 -107 511 -87 107 13 230
48 309 88 196 98 375 288 455 483 57 138 64 179 64 364 0 157 -2 177 -28 260
-118 387 -447 646 -851 674 l-94 6 -215 287 c-119 158 -216 289 -216 291 0 2
23 28 50 58 135 145 227 342 246 526 4 35 8 63 10 63 1 0 122 -58 268 -129
l266 -130 -10 -26 c-5 -14 -10 -55 -10 -90 0 -186 150 -337 334 -337 139 0
248 67 308 190 29 59 33 76 33 147 0 71 -4 89 -33 148 -87 177 -294 241 -473
145 l-58 -30 -316 153 c-175 84 -318 158 -320 164 -61 240 -131 373 -269 510
-122 121 -261 200 -435 247 -114 32 -334 31 -451 0 -271 -74 -487 -248 -611
-494 -46 -92 -84 -217 -94 -310 l-7 -67 -231 -198 c-127 -109 -240 -206 -252
-215 -20 -16 -24 -15 -86 29 -35 24 -89 57 -119 72 -89 45 -158 66 -317 97
l-23 4 0 218 0 218 54 23 c67 27 142 100 172 166 118 257 -113 539 -389 474z
m152 -177 c19 -9 48 -34 65 -55 27 -33 31 -47 31 -96 0 -71 -31 -122 -91 -151
-141 -69 -290 70 -230 214 37 89 143 130 225 88z m2178 -11 c273 -78 476 -288
544 -561 18 -71 21 -104 16 -210 -7 -188 -60 -328 -172 -460 -68 -79 -71 -80
-78 -10 -14 131 -96 218 -228 240 -46 8 -158 11 -327 8 -241 -3 -260 -5 -308
-27 -91 -40 -147 -119 -159 -225 l-7 -58 -30 28 c-75 72 -151 201 -189 324
-20 64 -23 96 -23 215 0 125 3 149 27 220 96 285 322 483 612 535 77 14 240 4
322 -19z m1684 -1024 c39 -26 79 -97 79 -142 0 -40 -38 -114 -71 -138 -55 -40
-144 -40 -198 0 -50 38 -66 70 -66 136 0 70 24 114 79 148 45 28 133 26 177
-4z m-3811 -68 c299 -48 544 -272 621 -568 26 -98 28 -267 5 -366 -23 -98 -85
-221 -157 -309 -33 -42 -65 -76 -70 -76 -5 0 -9 20 -9 44 0 99 -57 188 -148
233 l-57 28 -305 0 c-297 0 -306 -1 -355 -23 -27 -13 -63 -35 -79 -50 -43 -41
-76 -118 -76 -179 0 -29 -4 -53 -9 -53 -5 0 -28 21 -50 46 -173 197 -238 459
-176 706 9 35 37 106 63 158 39 80 61 110 137 186 184 186 416 264 665 223z
m2241 -105 c21 -23 24 -36 27 -124 l4 -99 -34 -17 c-72 -38 -153 -56 -273 -61
-129 -5 -211 7 -317 47 l-58 21 0 105 c0 98 2 107 25 129 l24 25 289 0 289 0
24 -26z m984 -1017 c146 -41 255 -105 360 -212 106 -109 170 -228 202 -378 21
-101 13 -289 -17 -377 -43 -127 -107 -235 -183 -308 l-34 -33 -6 55 c-11 106
-67 188 -157 230 -43 20 -62 21 -350 21 -343 0 -355 -2 -428 -69 -53 -48 -78
-99 -87 -179 l-7 -58 -30 28 c-17 15 -52 59 -78 96 -214 303 -178 718 85 981
108 109 261 189 413 216 64 12 255 4 317 -13z m-3048 -76 c34 -23 43 -55 43
-154 l0 -92 -57 -23 c-91 -35 -181 -52 -279 -52 -109 0 -174 11 -271 46 l-73
26 0 102 c0 115 10 139 63 155 18 5 149 9 292 8 208 -2 264 -5 282 -16z m1414
-14 c81 -55 102 -167 45 -241 -35 -47 -78 -68 -136 -68 -92 0 -161 64 -167
155 -7 101 64 177 167 177 43 0 65 -6 91 -23z m-421 -933 c203 -45 409 -211
504 -406 75 -152 99 -353 62 -511 -29 -125 -121 -292 -204 -370 l-29 -28 -5
63 c-9 105 -64 185 -158 227 -42 19 -65 21 -346 21 -242 0 -310 -3 -344 -15
-103 -36 -170 -130 -170 -239 l-1 -61 -62 66 c-221 236 -258 612 -88 898 172
290 503 430 841 355z m2177 -177 c27 -26 28 -31 28 -130 l0 -102 -59 -23
c-154 -61 -358 -68 -510 -18 -127 43 -119 33 -114 146 6 161 6 161 360 157
l268 -2 27 -28z m-3987 -420 c116 -61 118 -230 5 -294 -162 -92 -335 114 -212
254 58 66 132 80 207 40z m1937 -601 c27 -23 28 -29 31 -129 l4 -104 -54 -21
c-182 -73 -409 -74 -579 -1 l-49 21 0 103 c0 97 1 104 26 129 l27 26 283 0
283 0 28 -24z m1569 -1 c101 -59 111 -193 21 -272 -64 -56 -150 -56 -214 0
-65 57 -79 127 -42 204 42 87 149 118 235 68z"/>
<path d="M2905 4766 c-69 -17 -106 -38 -156 -89 -66 -65 -92 -126 -97 -222 -5
-110 21 -179 97 -256 148 -148 388 -129 513 40 42 58 60 117 61 201 1 88 -27
161 -88 229 -76 83 -219 126 -330 97z m151 -175 c128 -58 134 -232 11 -302
-31 -17 -50 -20 -93 -17 -90 8 -144 62 -152 152 -11 132 114 222 234 167z"/>
<path d="M852 3655 c-102 -24 -193 -108 -233 -213 -28 -76 -23 -185 12 -257
31 -64 101 -134 164 -165 42 -21 65 -25 140 -25 76 0 98 4 147 27 217 102 263
393 87 554 -50 45 -82 62 -146 79 -68 18 -100 18 -171 0z m186 -192 c71 -58
89 -131 51 -210 -59 -122 -237 -124 -299 -3 -45 88 -6 194 85 236 46 22 121
11 163 -23z"/>
<path d="M4017 2550 c-95 -24 -184 -97 -227 -185 -35 -72 -40 -189 -10 -267
64 -171 264 -262 434 -198 192 73 276 302 178 483 -68 127 -236 201 -375 167z
m153 -182 c103 -53 126 -175 49 -263 -36 -41 -86 -59 -146 -52 -52 6 -88 29
-121 78 -20 29 -23 44 -20 94 5 74 33 119 92 146 54 25 93 24 146 -3z"/>
<path d="M1992 1528 c-74 -11 -142 -49 -195 -108 -119 -132 -117 -328 5 -456
166 -175 453 -128 555 91 36 79 39 194 5 268 -68 151 -211 230 -370 205z m157
-197 c37 -27 70 -91 71 -136 0 -40 -38 -114 -71 -138 -55 -40 -144 -40 -198 0
-51 39 -66 70 -66 138 0 71 17 103 76 143 46 32 138 28 188 -7z"/>
</g>
</svg>
